<svg xmlns="http://www.w3.org/2000/svg" width="407.132" height="468.432" viewBox="0 0 407.132 468.432">
  <g id="Group_21" data-name="Group 21" transform="translate(1.187 1.03)">
    <g id="Group_13" data-name="Group 13">
      <g id="Group_12" data-name="Group 12">
        <path id="Path_24" data-name="Path 24" d="M173.715,571.36l-56.024-30.477L242.248,116.8l99.543-11.632,56.024,30.477" transform="translate(-117.691 -105.165)" fill="none" stroke="#000" stroke-miterlimit="10" stroke-width="2"/>
        <g id="Group_11" data-name="Group 11" transform="translate(56.024 30.477)">
          <path id="Path_25" data-name="Path 25" d="M364.584,117.564,265.041,129.2,140.484,553.283l80.449-11.306,27.679-103.716L381.5,419.666l27.106,83.645L489.078,492Z" transform="translate(-140.484 -117.564)" fill="#fff" stroke="#1a1818" stroke-miterlimit="10" stroke-width="2"/>
        </g>
        <line id="Line_1" data-name="Line 1" x2="56.024" y2="30.477" transform="translate(124.557 11.632)" fill="none" stroke="#000" stroke-miterlimit="10" stroke-width="2"/>
        <path id="Path_26" data-name="Path 26" d="M237.765,156.871,193.514,311.083l89.143-13.227Z" transform="translate(-7.148 -29.781)" fill="none" stroke="#000" stroke-miterlimit="10" stroke-width="2"/>
      </g>
      <path id="Path_27" data-name="Path 27" d="M215.762,144.933l-45,152.784,56.024,30.477,87.095-13.311-54.066-30.1Z" transform="translate(-40.325 -47.185)" fill="none" stroke="#000" stroke-miterlimit="10" stroke-width="0.5"/>
      <line id="Line_2" data-name="Line 2" y1="12.934" x2="89.053" transform="translate(130.433 237.598)" fill="none" stroke="#000" stroke-miterlimit="10" stroke-width="0.5"/>
      <line id="Line_3" data-name="Line 3" x2="55.18" y2="29.896" transform="translate(175.438 97.748)" fill="none" stroke="#000" stroke-miterlimit="10" stroke-width="0.5"/>
      <path id="Path_28" data-name="Path 28" d="M117.691,361.792l80.449-11.306,28.668-103.329L359.33,228.005l55.4,30.646" transform="translate(-117.691 73.928)" fill="none" stroke="#000" stroke-miterlimit="10" stroke-width="0.5"/>
      <line id="Line_4" data-name="Line 4" x1="56.024" y1="30.477" transform="translate(80.449 424.413)" fill="none" stroke="#000" stroke-miterlimit="10" stroke-width="0.5"/>
      <line id="Line_5" data-name="Line 5" x2="55.035" y2="30.09" transform="translate(109.117 321.084)" fill="none" stroke="#000" stroke-miterlimit="10" stroke-width="0.5"/>
      <path id="Path_29" data-name="Path 29" d="M216,228.005l26.486,83.814L298.511,342.3" transform="translate(25.637 73.928)" fill="none" stroke="#000" stroke-miterlimit="10" stroke-width="0.5"/>
      <path id="Path_30" data-name="Path 30" d="M226.777,268.813,307.246,257.5,363.27,287.98" transform="translate(41.348 116.934)" fill="none" stroke="#000" stroke-miterlimit="10" stroke-width="0.5"/>
      <line id="Line_6" data-name="Line 6" x2="124.494" y2="374.438" transform="translate(224.1)" fill="none" stroke="#000" stroke-miterlimit="10" stroke-width="0.5"/>
    </g>
  </g>
</svg>
